<?xml version="1.0" standalone="no"?>
<!DOCTYPE svg PUBLIC "-//W3C//DTD SVG 1.1//EN" "http://www.w3.org/Graphics/SVG/1.1/DTD/svg11.dtd" >
<svg xmlns="http://www.w3.org/2000/svg">
<metadata>Generated by IcoMoon</metadata>
<defs>
<font id="icomoon" horiz-adv-x="1024">
<font-face units-per-em="1024" ascent="960" descent="-64" />
<missing-glyph horiz-adv-x="1024" />
<glyph unicode="&#x20;" horiz-adv-x="512" d="" />
<glyph unicode="&#xe900;" glyph-name="about" d="M804.571 832c26.93 0 48.762-21.49 48.762-48v0-672c0-26.51-21.831-48-48.762-48v0h-585.143c-26.93 0-48.762 21.49-48.762 48v0 672c0 26.51 21.831 48 48.762 48v0zM609.524 448h-195.048c-26.93 0-48.762-21.49-48.762-48s21.831-48 48.762-48h195.048c26.93 0 48.762 21.49 48.762 48s-21.831 48-48.762 48zM609.524 640h-195.048c-26.93 0-48.762-21.49-48.762-48s21.831-48 48.762-48h195.048c26.93 0 48.762 21.49 48.762 48s-21.831 48-48.762 48z" />
<glyph unicode="&#xe901;" glyph-name="add" d="M512 874.667c-235.52 0-426.667-191.147-426.667-426.667s191.147-426.667 426.667-426.667c235.52 0 426.667 191.147 426.667 426.667s-191.147 426.667-426.667 426.667zM682.667 405.333h-128v-128c0-23.467-19.2-42.667-42.667-42.667s-42.667 19.2-42.667 42.667v128h-128c-23.467 0-42.667 19.2-42.667 42.667s19.2 42.667 42.667 42.667h128v128c0 23.467 19.2 42.667 42.667 42.667s42.667-19.2 42.667-42.667v-128h128c23.467 0 42.667-19.2 42.667-42.667s-19.2-42.667-42.667-42.667z" />
<glyph unicode="&#xe902;" glyph-name="agenda" d="M810.667 789.333h-42.667v42.667c0 23.467-19.2 42.667-42.667 42.667s-42.667-19.2-42.667-42.667v-42.667h-341.333v42.667c0 23.467-19.2 42.667-42.667 42.667s-42.667-19.2-42.667-42.667v-42.667h-42.667c-47.36 0-84.907-38.4-84.907-85.333l-0.427-597.333c0-46.933 37.973-85.333 85.333-85.333h597.333c46.933 0 85.333 38.4 85.333 85.333v597.333c0 46.933-38.4 85.333-85.333 85.333zM768 106.667h-512c-23.467 0-42.667 19.2-42.667 42.667v426.667h597.333v-426.667c0-23.467-19.2-42.667-42.667-42.667zM341.333 490.667h128c23.467 0 42.667-19.2 42.667-42.667v-128c0-23.467-19.2-42.667-42.667-42.667h-128c-23.467 0-42.667 19.2-42.667 42.667v128c0 23.467 19.2 42.667 42.667 42.667z" />
<glyph unicode="&#xe903;" glyph-name="arrow-back" d="M810.667 490.667h-476.587l208.213 208.213c16.64 16.64 16.64 43.947 0 60.587s-43.52 16.64-60.16 0l-281.173-281.173c-16.64-16.64-16.64-43.52 0-60.16l281.173-281.173c16.64-16.64 43.52-16.64 60.16 0s16.64 43.52 0 60.16l-208.213 208.213h476.587c23.467 0 42.667 19.2 42.667 42.667s-19.2 42.667-42.667 42.667z" />
<glyph unicode="&#xe904;" glyph-name="arrow-downward" d="M469.333 746.667v-476.587l-208.213 208.213c-16.64 16.64-43.947 16.64-60.587 0s-16.64-43.52 0-60.16l281.173-281.173c16.64-16.64 43.52-16.64 60.16 0l281.173 281.173c16.64 16.64 16.64 43.52 0 60.16s-43.52 16.64-60.16 0l-208.213-208.213v476.587c0 23.467-19.2 42.667-42.667 42.667s-42.667-19.2-42.667-42.667z" />
<glyph unicode="&#xe905;" glyph-name="arrow-dropdown" d="M371.627 460.373l110.507-110.507c16.64-16.64 43.52-16.64 60.16 0l110.507 110.507c26.88 26.88 7.68 72.96-30.293 72.96h-221.013c-37.973 0-56.747-46.080-29.867-72.96z" />
<glyph unicode="&#xe906;" glyph-name="arrow-dropup" d="M652.373 435.627l-110.507 110.507c-16.64 16.64-43.52 16.64-60.16 0l-110.507-110.507c-26.88-26.88-7.68-72.96 30.293-72.96h221.013c37.973 0 56.747 46.080 29.867 72.96z" />
<glyph unicode="&#xe907;" glyph-name="arrow-forward" d="M213.333 405.333h476.587l-208.213-208.213c-16.64-16.64-16.64-43.947 0-60.587s43.52-16.64 60.16 0l281.173 281.173c16.64 16.64 16.64 43.52 0 60.16l-281.173 281.173c-16.64 16.64-43.52 16.64-60.16 0s-16.64-43.52 0-60.16l208.213-208.213h-476.587c-23.467 0-42.667-19.2-42.667-42.667s19.2-42.667 42.667-42.667z" />
<glyph unicode="&#xe908;" glyph-name="arrow-left" d="M524.373 588.373l-110.507-110.507c-16.64-16.64-16.64-43.52 0-60.16l110.507-110.507c26.88-26.88 72.96-7.68 72.96 30.293v221.013c0 37.973-46.080 56.747-72.96 29.867z" />
<glyph unicode="&#xe909;" glyph-name="arrow-right" d="M499.627 307.627l110.507 110.507c16.64 16.64 16.64 43.52 0 60.16l-110.507 110.507c-26.88 26.88-72.96 7.68-72.96-30.293v-221.013c0-37.973 46.080-56.747 72.96-29.867z" />
<glyph unicode="&#xe90a;" glyph-name="arrow-upward" d="M554.667 149.333v476.587l208.213-208.213c16.64-16.64 43.947-16.64 60.587 0s16.64 43.52 0 60.16l-281.173 281.173c-16.64 16.64-43.52 16.64-60.16 0l-281.173-281.173c-16.64-16.64-16.64-43.52 0-60.16s43.52-16.64 60.16 0l208.213 208.213v-476.587c0-23.467 19.2-42.667 42.667-42.667s42.667 19.2 42.667 42.667z" />
<glyph unicode="&#xe90b;" glyph-name="attachment" d="M704 672v-451.413c0-89.173-65.28-168.533-154.027-177.067-101.973-9.813-187.307 69.973-187.307 169.813v527.36c0 55.893 40.107 106.667 95.573 112.213 64 6.4 117.76-43.52 117.76-106.24v-448c0-23.467-19.2-42.667-42.667-42.667s-42.667 19.2-42.667 42.667v373.333c0 17.493-14.507 32-32 32s-32-14.507-32-32v-367.36c0-55.893 40.107-106.667 95.573-112.213 64-6.4 117.76 43.52 117.76 106.24v440.747c0 89.173-65.28 168.533-154.027 177.067-101.547 9.813-187.307-69.973-187.307-169.813v-523.52c0-122.453 89.6-232.107 211.627-243.627 140.373-12.8 257.707 96.427 257.707 233.813v458.667c0 17.493-14.507 32-32 32s-32-14.507-32-32z" />
<glyph unicode="&#xe90c;" glyph-name="audio" d="M832 874.667c58.667 0 106.667-48 106.667-106.667v0-640c0-58.667-48-106.667-106.667-106.667v0h-640c-58.667 0-106.667 48-106.667 106.667v0 640c0 58.667 48 106.667 106.667 106.667v0zM725.333 714.667h-213.333v-293.867c-22.4 17.067-49.6 27.2-80 27.2-73.6 0-133.333-59.733-133.333-133.333s59.733-133.333 133.333-133.333c73.6 0 133.333 59.733 133.333 133.333v0 293.333h160v106.667z" />
<glyph unicode="&#xe90d;" glyph-name="bible" d="M818.439 874.667c42.949 0 77.561-42.656 77.561-94.864v0-663.605c0-52.209-34.613-94.864-77.561-94.864v0h-38.056c28.632 11.997 41.318 45.766 41.318 94.864v0 663.605c0 49.098-14.135 82.201-41.318 94.864v0zM693.154 874.667c2.853 0 5.707-0.222 8.56-0.444 43.818-4.665 78.465-45.322 78.669-94.42v0-663.605c0-49.098-34.647-89.754-78.465-94.42-2.853-0.222-5.707-0.444-8.56-0.444v0h-478.333c-47.894 0-87.025 42.656-87.025 94.864v0 663.605c0 52.209 39.131 94.864 87.025 94.864v0zM490.849 661.333h-73.314c-6.395 0.018-12.535-2.317-17.070-6.49s-7.092-9.844-7.109-15.763v0-64.513h-67.208c-13.315 0.033-24.138-9.929-24.179-22.253v0-67.351c0.040-12.324 10.864-22.286 24.179-22.253v0h67.226v-205.791c0.040-12.324 10.864-22.286 24.179-22.253v0h73.287c6.395-0.018 12.535 2.317 17.070 6.49s7.092 9.844 7.109 15.763v0 205.791h67.217c13.315-0.033 24.138 9.929 24.179 22.253v0 67.351c-0.017 5.919-2.574 11.589-7.109 15.763s-10.675 6.508-17.070 6.49v0h-67.208v64.513c-0.017 5.919-2.574 11.589-7.109 15.763s-10.675 6.508-17.070 6.49v0z" />
<glyph unicode="&#xe90e;" glyph-name="blocked" d="M512 874.667c-235.52 0-426.667-191.147-426.667-426.667s191.147-426.667 426.667-426.667c235.52 0 426.667 191.147 426.667 426.667s-191.147 426.667-426.667 426.667zM170.667 448c0 188.587 152.747 341.333 341.333 341.333 78.933 0 151.467-26.88 209.067-72.107l-478.293-478.293c-45.227 57.6-72.107 130.133-72.107 209.067zM512 106.667c-78.933 0-151.467 26.88-209.067 72.107l478.293 478.293c45.227-57.6 72.107-130.133 72.107-209.067 0-188.587-152.747-341.333-341.333-341.333z" />
<glyph unicode="&#xe90f;" glyph-name="boleto" d="M153.971 789.333c23.564 0 42.667-19.103 42.667-42.667v-656.696c0-23.564-19.103-42.667-42.667-42.667h-25.971c-23.564 0-42.667 19.103-42.667 42.667v656.696c0 23.564 19.103 42.667 42.667 42.667h25.971zM896 789.333c23.564 0 42.667-19.103 42.667-42.667v-656.696c0-23.564-19.103-42.667-42.667-42.667h-25.971c-23.564 0-42.667 19.103-42.667 42.667v656.696c0 23.564 19.103 42.667 42.667 42.667h25.971zM339.478 789.333c23.564 0 42.667-19.103 42.667-42.667v-508.29c0-23.564-19.103-42.667-42.667-42.667h-25.971c-23.564 0-42.667 19.103-42.667 42.667v508.29c0 23.564 19.103 42.667 42.667 42.667h25.971zM710.493 789.333c23.564 0 42.667-19.103 42.667-42.667v-508.29c0-23.564-19.103-42.667-42.667-42.667h-25.971c-23.564 0-42.667 19.103-42.667 42.667v508.29c0 23.564 19.103 42.667 42.667 42.667h25.971zM524.986 789.333c23.564 0 42.667-19.103 42.667-42.667v-508.29c0-23.564-19.103-42.667-42.667-42.667h-25.971c-23.564 0-42.667 19.103-42.667 42.667v508.29c0 23.564 19.103 42.667 42.667 42.667h25.971z" />
<glyph unicode="&#xe910;" glyph-name="business" d="M219.151 704h585.698c23.010 0 41.836 19.2 41.836 42.667s-18.826 42.667-41.836 42.667h-585.698c-23.010 0-41.836-19.2-41.836-42.667s18.826-42.667 41.836-42.667zM853.379 627.2c-3.765 19.627-20.918 34.133-40.999 34.133h-600.759c-20.081 0-37.234-14.507-40.999-34.133l-41.836-213.333c-5.020-26.453 14.642-51.2 40.999-51.2h7.53v-213.333c0-23.467 18.826-42.667 41.836-42.667h334.685c23.010 0 41.836 19.2 41.836 42.667v213.333h167.342v-213.333c0-23.467 18.826-42.667 41.836-42.667s41.836 19.2 41.836 42.667v213.333h7.53c26.356 0 46.019 24.747 40.999 51.2l-41.836 213.333zM512 192h-251.014v170.667h251.014v-170.667z" />
<glyph unicode="&#xe911;" glyph-name="calendar" d="M819.2 797.091h-38.4v38.788c0 21.333-17.28 38.788-38.4 38.788s-38.4-17.455-38.4-38.788v-38.788h-384v38.788c0 21.333-17.28 38.788-38.4 38.788s-38.4-17.455-38.4-38.788v-38.788h-38.4c-42.24 0-76.8-34.909-76.8-77.576v-620.606c0-42.667 34.56-77.576 76.8-77.576h614.4c42.24 0 76.8 34.909 76.8 77.576v620.606c0 42.667-34.56 77.576-76.8 77.576zM780.8 98.909h-537.6c-21.12 0-38.4 17.455-38.4 38.788v465.455h614.4v-465.455c0-21.333-17.28-38.788-38.4-38.788z" />
<glyph unicode="&#xe912;" glyph-name="cartao" d="M853.333 789.333h-682.667c-47.36 0-84.907-37.973-84.907-85.333l-0.427-512c0-47.36 37.973-85.333 85.333-85.333h682.667c47.36 0 85.333 37.973 85.333 85.333v512c0 47.36-37.973 85.333-85.333 85.333zM810.667 192h-597.333c-23.467 0-42.667 19.2-42.667 42.667v213.333h682.667v-213.333c0-23.467-19.2-42.667-42.667-42.667zM853.333 618.667h-682.667v85.333h682.667v-85.333z" />
<glyph unicode="&#xe913;" glyph-name="cast" d="M896 832h-768c-46.933 0-85.333-38.4-85.333-85.333v-85.333c0-23.467 19.2-42.667 42.667-42.667s42.667 19.2 42.667 42.667v42.667c0 23.467 19.2 42.667 42.667 42.667h682.667c23.467 0 42.667-19.2 42.667-42.667v-512c0-23.467-19.2-42.667-42.667-42.667h-213.333c-23.467 0-42.667-19.2-42.667-42.667s19.2-42.667 42.667-42.667h256c46.933 0 85.333 38.4 85.333 85.333v597.333c0 46.933-38.4 85.333-85.333 85.333zM91.307 358.827c-25.6 4.267-48.64-16.64-48.64-42.667 0-20.907 15.36-38.4 36.267-41.813 88.747-15.36 158.72-85.333 174.080-174.080 3.413-20.907 20.907-36.267 41.813-36.267 26.027 0 46.507 23.040 42.667 48.64-20.48 126.293-120.32 225.707-246.187 246.187zM42.667 192v-128h128c0 70.827-57.173 128-128 128zM89.6 531.2c-25.173 2.133-46.933-17.493-46.933-42.667 0-21.76 16.213-40.107 37.547-42.24 182.187-17.493 327.253-162.56 344.747-344.747 2.133-21.333 20.48-37.12 42.24-37.12 25.6 0 45.227 22.187 42.667 47.36-22.613 221.44-198.827 397.227-420.267 419.413z" />
<glyph unicode="&#xe914;" glyph-name="cell" d="M512 874.667c-235.52 0-426.667-191.147-426.667-426.667s191.147-426.667 426.667-426.667c235.52 0 426.667 191.147 426.667 426.667s-191.147 426.667-426.667 426.667zM341.333 213.333c-58.88 0-106.667 47.787-106.667 106.667s47.787 106.667 106.667 106.667c58.88 0 106.667-47.787 106.667-106.667s-47.787-106.667-106.667-106.667zM405.333 618.667c0 58.88 47.787 106.667 106.667 106.667s106.667-47.787 106.667-106.667c0-58.88-47.787-106.667-106.667-106.667s-106.667 47.787-106.667 106.667zM682.667 213.333c-58.88 0-106.667 47.787-106.667 106.667s47.787 106.667 106.667 106.667c58.88 0 106.667-47.787 106.667-106.667s-47.787-106.667-106.667-106.667z" />
<glyph unicode="&#xe915;" glyph-name="check" d="M512 874.667c-235.52 0-426.667-191.147-426.667-426.667s191.147-426.667 426.667-426.667c235.52 0 426.667 191.147 426.667 426.667s-191.147 426.667-426.667 426.667zM396.373 264.96l-153.173 153.173c-16.64 16.64-16.64 43.52 0 60.16s43.52 16.64 60.16 0l123.307-122.88 293.547 293.547c16.64 16.64 43.52 16.64 60.16 0s16.64-43.52 0-60.16l-323.84-323.84c-16.213-16.64-43.52-16.64-60.16 0z" />
<glyph unicode="&#xe916;" glyph-name="church" d="M512 917.333c17.673 0 32-14.327 32-32v-53.333h64c17.673 0 32-14.327 32-32s-14.327-32-32-32h-64v-77.44l215.012-92.372c31.341-13.462 51.654-44.296 51.654-78.406v-63.249l74.359-29.743c32.398-12.959 53.641-44.337 53.641-79.23v-240.893c0-47.128-38.205-85.333-85.333-85.333h-213.333v170.667c0 47.128-38.205 85.333-85.333 85.333v0h-85.333c-47.128 0-85.333-38.205-85.333-85.333v0-170.667h-213.333c-47.128 0-85.333 38.205-85.333 85.333v240.893c0 34.893 21.244 66.271 53.641 79.23l74.359 29.743v63.259c0 34.105 20.307 64.934 51.64 78.4l215.026 92.453v77.355h-64c-17.673 0-32 14.327-32 32s14.327 32 32 32h64v53.333c0 17.673 14.327 32 32 32zM512 533.333c-23.564 0-42.667-19.103-42.667-42.667s19.103-42.667 42.667-42.667c23.564 0 42.667 19.103 42.667 42.667s-19.103 42.667-42.667 42.667z" />
<glyph unicode="&#xe917;" glyph-name="clock" d="M511.573 874.667c-235.52 0-426.24-191.147-426.24-426.667s190.72-426.667 426.24-426.667c235.947 0 427.093 191.147 427.093 426.667s-191.147 426.667-427.093 426.667zM512 106.667c-188.587 0-341.333 152.747-341.333 341.333s152.747 341.333 341.333 341.333c188.587 0 341.333-152.747 341.333-341.333s-152.747-341.333-341.333-341.333zM502.613 661.333h-2.56c-17.067 0-30.72-13.653-30.72-30.72v-201.387c0-14.933 7.68-29.013 20.907-36.693l177.067-106.24c14.507-8.533 33.28-4.267 41.813 10.24 8.96 14.507 4.267 33.707-10.667 42.24l-165.12 98.133v193.707c0 17.067-13.653 30.72-30.72 30.72v0z" />
<glyph unicode="&#xe918;" glyph-name="close" d="M780.8 716.373c-16.64 16.64-43.52 16.64-60.16 0l-208.64-208.213-208.64 208.64c-16.64 16.64-43.52 16.64-60.16 0s-16.64-43.52 0-60.16l208.64-208.64-208.64-208.64c-16.64-16.64-16.64-43.52 0-60.16s43.52-16.64 60.16 0l208.64 208.64 208.64-208.64c16.64-16.64 43.52-16.64 60.16 0s16.64 43.52 0 60.16l-208.64 208.64 208.64 208.64c16.213 16.213 16.213 43.52 0 59.733z" />
<glyph unicode="&#xe919;" glyph-name="contact" d="M853.333 704h-42.667v-341.333c0-23.467-19.2-42.667-42.667-42.667h-512v-42.667c0-46.933 38.4-85.333 85.333-85.333h426.667l170.667-170.667v597.333c0 46.933-38.4 85.333-85.333 85.333zM725.333 490.667v298.667c0 46.933-38.4 85.333-85.333 85.333h-469.333c-46.933 0-85.333-38.4-85.333-85.333v-554.667l170.667 170.667h384c46.933 0 85.333 38.4 85.333 85.333z" />
<glyph unicode="&#xe91a;" glyph-name="content" d="M896 832h-768c-46.933 0-85.333-38.4-85.333-85.333v-512c0-46.933 38.4-85.333 85.333-85.333h213.333v-42.667c0-23.467 19.2-42.667 42.667-42.667h256c23.467 0 42.667 19.2 42.667 42.667v42.667h213.333c46.933 0 84.907 38.4 84.907 85.333l0.427 512c0 47.36-38.4 85.333-85.333 85.333zM853.333 234.667h-682.667c-23.467 0-42.667 19.2-42.667 42.667v426.667c0 23.467 19.2 42.667 42.667 42.667h682.667c23.467 0 42.667-19.2 42.667-42.667v-426.667c0-23.467-19.2-42.667-42.667-42.667zM617.813 453.547l-169.813-97.28c-28.587-16.213-64 4.693-64 37.12v194.56c0 32.853 35.413 53.333 64 37.12l169.813-97.28c28.587-16.64 28.587-57.6 0-74.24z" />
<glyph unicode="&#xe91b;" glyph-name="copy-text" d="M682.667 917.333h-469.333c-46.933 0-85.333-38.4-85.333-85.333v-554.667c0-23.467 19.2-42.667 42.667-42.667s42.667 19.2 42.667 42.667v512c0 23.467 19.2 42.667 42.667 42.667h426.667c23.467 0 42.667 19.2 42.667 42.667s-19.2 42.667-42.667 42.667zM707.84 721.493l206.080-206.080c15.787-15.787 24.747-37.547 24.747-60.16v-391.253c0-46.933-38.4-85.333-85.333-85.333h-469.76c-46.933 0-84.907 38.4-84.907 85.333l0.427 597.333c0 46.933 37.973 85.333 84.907 85.333h263.253c22.613 0 44.373-8.96 60.587-25.173zM682.667 448h192l-234.667 234.667v-192c0-23.467 19.2-42.667 42.667-42.667z" />
<glyph unicode="&#xe91c;" glyph-name="create-note" d="M622.507 849.493c-16.213 16.213-37.973 25.173-60.587 25.173h-305.92c-46.933 0-85.333-38.4-85.333-85.333v-682.667c0-46.933 37.973-85.333 84.907-85.333h512.427c46.933 0 85.333 38.4 85.333 85.333v476.587c0 22.613-8.96 44.373-25.173 60.16l-205.653 206.080zM640 277.333h-85.333v-85.333c0-23.467-19.2-42.667-42.667-42.667s-42.667 19.2-42.667 42.667v85.333h-85.333c-23.467 0-42.667 19.2-42.667 42.667s19.2 42.667 42.667 42.667h85.333v85.333c0 23.467 19.2 42.667 42.667 42.667s42.667-19.2 42.667-42.667v-85.333h85.333c23.467 0 42.667-19.2 42.667-42.667s-19.2-42.667-42.667-42.667zM554.667 618.667v192l234.667-234.667h-192c-23.467 0-42.667 19.2-42.667 42.667z" />
<glyph unicode="&#xe91d;" glyph-name="credit-card" d="M853.333 789.333h-682.667c-47.36 0-84.907-37.973-84.907-85.333l-0.427-512c0-47.36 37.973-85.333 85.333-85.333h682.667c47.36 0 85.333 37.973 85.333 85.333v512c0 47.36-37.973 85.333-85.333 85.333zM853.333 192h-682.667v256h682.667v-256zM853.333 618.667h-682.667v85.333h682.667v-85.333z" />
<glyph unicode="&#xe91e;" glyph-name="delete" d="M219.429 116.148c0-52.148 43.886-94.815 97.524-94.815h390.095c53.638 0 97.524 42.667 97.524 94.815v474.074c0 52.148-43.886 94.815-97.524 94.815h-390.095c-53.638 0-97.524-42.667-97.524-94.815v-474.074zM804.571 827.259h-121.905l-34.621 33.659c-8.777 8.533-21.455 13.748-34.133 13.748h-203.825c-12.678 0-25.356-5.215-34.133-13.748l-34.621-33.659h-121.905c-26.819 0-48.762-21.333-48.762-47.407s21.943-47.407 48.762-47.407h585.143c26.819 0 48.762 21.333 48.762 47.407s-21.943 47.407-48.762 47.407z" />
<glyph unicode="&#xe91f;" glyph-name="donation" d="M569.566 86.468c-32.414-30.029-82.315-30.029-114.729 0.435l-4.692 4.352c-223.914 206.722-370.204 342.070-364.66 510.929 2.559 73.985 39.665 144.923 99.802 186.702 112.597 78.337 251.637 41.78 326.701-47.872 75.064 89.652 214.104 126.644 326.701 47.872 60.137-41.78 97.243-112.718 99.802-186.702 5.971-168.859-140.746-304.207-364.66-511.799l-4.265-3.917z" />
<glyph unicode="&#xe920;" glyph-name="download" d="M735.817 573.49h-77.531v250.98c0 27.608-21.943 50.196-48.762 50.196h-195.048c-26.819 0-48.762-22.588-48.762-50.196v-250.98h-77.531c-43.398 0-65.341-54.212-34.621-85.835l223.817-230.4c19.017-19.576 49.737-19.576 68.754 0l223.817 230.4c30.72 31.624 9.265 85.835-34.133 85.835zM170.667 71.529c0-27.608 21.943-50.196 48.762-50.196h585.143c26.819 0 48.762 22.588 48.762 50.196s-21.943 50.196-48.762 50.196h-585.143c-26.819 0-48.762-22.588-48.762-50.196z" />
<glyph unicode="&#xe921;" glyph-name="downloads" d="M707.84 533.333h-67.84v213.333c0 23.467-19.2 42.667-42.667 42.667h-170.667c-23.467 0-42.667-19.2-42.667-42.667v-213.333h-67.84c-37.973 0-57.173-46.080-30.293-72.96l195.84-195.84c16.64-16.64 43.52-16.64 60.16 0l195.84 195.84c26.88 26.88 8.107 72.96-29.867 72.96zM213.333 106.667c0-23.467 19.2-42.667 42.667-42.667h512c23.467 0 42.667 19.2 42.667 42.667s-19.2 42.667-42.667 42.667h-512c-23.467 0-42.667-19.2-42.667-42.667z" />
<glyph unicode="&#xe922;" glyph-name="edit" d="M128 215.040v-129.707c0-11.947 9.387-21.333 21.333-21.333h129.707c5.547 0 11.093 2.133 14.933 6.4l465.92 465.493-160 160-465.493-465.493c-4.267-4.267-6.4-9.387-6.4-15.36zM883.627 659.627c16.64 16.64 16.64 43.52 0 60.16l-99.84 99.84c-16.64 16.64-43.52 16.64-60.16 0l-78.080-78.080 160-160 78.080 78.080z" />
<glyph unicode="&#xe923;" glyph-name="email" d="M853.333 789.333h-682.667c-46.933 0-84.907-38.4-84.907-85.333l-0.427-512c0-46.933 38.4-85.333 85.333-85.333h682.667c46.933 0 85.333 38.4 85.333 85.333v512c0 46.933-38.4 85.333-85.333 85.333zM853.333 618.667l-341.333-213.333-341.333 213.333v85.333l341.333-213.333 341.333 213.333v-85.333z" />
<glyph unicode="&#xe924;" glyph-name="events" d="M853.333 448c0 32.427 18.347 60.587 45.227 75.093 25.6 14.080 40.107 43.093 40.107 72.533v108.373c0 46.933-38.4 85.333-85.333 85.333h-682.667c-46.933 0-84.907-37.973-84.907-84.907v-108.8c0-29.44 14.080-58.453 40.107-72.107 26.88-14.933 44.8-43.093 44.8-75.52s-18.347-61.013-45.227-75.093c-25.6-14.080-40.107-43.093-40.107-72.533v-108.373c0-46.933 38.4-85.333 85.333-85.333h682.667c46.933 0 85.333 38.4 85.333 85.333v108.373c0 29.44-14.507 58.453-40.107 72.533-26.88 14.507-45.227 42.667-45.227 75.093zM618.667 273.067l-106.667 68.267-106.667-68.693c-16.213-10.24-37.12 4.693-32 23.467l32 122.88-98.133 80.213c-14.933 12.373-7.253 36.693 12.373 37.973l126.293 7.253 46.080 117.333c7.253 17.92 32.853 17.92 39.68 0l46.080-117.76 126.293-7.253c19.2-1.28 27.307-25.6 12.373-37.973l-98.133-80.213 32.427-122.027c5.12-19.2-15.787-34.133-32-23.467z" />
<glyph unicode="&#xe925;" glyph-name="facebook" d="M832 960h-640c-106.063 0-192-85.937-192-192v-640c0-106.063 85.937-192 192-192h640c106.063 0 192 85.937 192 192v640c0 106.063-85.937 192-192 192zM805.967 408.537h-95.823v-354.619h-160.020v354.619h-62.070v119.454h62.070v76.091c0.039 99.761 41.472 158.996 159.035 158.996h119.138v-119.020h-69.199c-45.765 0-48.758-17.054-48.758-48.955l-0.197-67.072h108.859l-13.036-119.493z" />
<glyph unicode="&#xe926;" glyph-name="filter" d="M469.333 192h85.333c23.467 0 42.667 19.2 42.667 42.667s-19.2 42.667-42.667 42.667h-85.333c-23.467 0-42.667-19.2-42.667-42.667s19.2-42.667 42.667-42.667zM128 661.333c0-23.467 19.2-42.667 42.667-42.667h682.667c23.467 0 42.667 19.2 42.667 42.667s-19.2 42.667-42.667 42.667h-682.667c-23.467 0-42.667-19.2-42.667-42.667zM298.667 405.333h426.667c23.467 0 42.667 19.2 42.667 42.667s-19.2 42.667-42.667 42.667h-426.667c-23.467 0-42.667-19.2-42.667-42.667s19.2-42.667 42.667-42.667z" />
<glyph unicode="&#xe927;" glyph-name="forward" d="M810.015 400.050c-21.43 0-39.002-15.548-42.002-36.138-20.572-141.612-161.579-245.405-318.015-208.426-96.433 22.692-167.579 95.389-188.152 190.357-34.716 162.623 91.719 306.336 251.583 306.336v-117.24c0-18.91 23.144-28.154 36.43-14.708l162.436 159.261c8.572 8.404 8.572 21.431 0 29.835l-162.436 159.261c-13.286 13.027-36.43 3.782-36.43-15.128v-117.24c-211.724 0-378.875-188.256-336.016-403.406 25.716-130.687 124.292-231.118 256.726-260.113 207.010-45.383 392.161 92.447 418.734 280.283 3.857 24.793-17.144 47.064-42.859 47.064zM466.285 273.986v179.432h-3.857l-75.861-26.474v-28.995l43.288 13.027v-136.99h36.43zM612.863 451.317c-7.715 2.941-15.858 4.202-25.287 4.202s-17.572-1.261-25.287-4.202c-7.715-2.942-14.144-7.564-19.287-13.867s-9.858-14.287-12.429-23.952c-2.572-9.665-4.286-21.011-4.286-34.458v-31.096c0-13.447 1.714-25.213 4.715-34.458s7.286-17.649 12.858-23.952c5.572-6.303 12.001-10.926 19.715-13.867s15.858-4.202 25.287-4.202c9.429 0 17.572 1.261 25.287 4.202s14.144 7.564 19.287 13.867c5.143 6.303 9.429 14.287 12.429 23.952s4.286 21.011 4.286 34.458v31.096c0 13.447-1.714 25.213-4.715 34.458s-7.286 17.649-12.858 23.952c-5.572 6.303-12.429 10.926-19.715 13.867zM613.292 343.321c0-7.984-0.429-14.708-1.714-20.17s-2.572-10.085-4.715-13.447c-2.143-3.362-4.715-5.883-8.143-7.144s-6.857-2.101-10.715-2.101c-3.857 0-7.715 0.84-10.715 2.101s-6 3.782-8.143 7.144c-2.143 3.362-3.857 7.984-5.143 13.447s-1.714 12.186-1.714 20.17v40.761c0 7.984 0.429 14.708 1.714 20.17s2.572 9.665 5.143 13.027c2.572 3.362 4.715 5.883 8.143 7.144s6.857 2.101 10.715 2.101c3.857 0 7.715-0.84 10.715-2.101s6-3.782 8.143-7.144c2.143-3.362 3.857-7.564 5.143-13.027s1.714-12.186 1.714-20.17v-40.761h-0.429z" />
<glyph unicode="&#xe928;" glyph-name="fullscreen-exit" d="M256 277.333h85.333v-85.333c0-23.467 19.2-42.667 42.667-42.667s42.667 19.2 42.667 42.667v128c0 23.467-19.2 42.667-42.667 42.667h-128c-23.467 0-42.667-19.2-42.667-42.667s19.2-42.667 42.667-42.667zM341.333 618.667h-85.333c-23.467 0-42.667-19.2-42.667-42.667s19.2-42.667 42.667-42.667h128c23.467 0 42.667 19.2 42.667 42.667v128c0 23.467-19.2 42.667-42.667 42.667s-42.667-19.2-42.667-42.667v-85.333zM640 149.333c23.467 0 42.667 19.2 42.667 42.667v85.333h85.333c23.467 0 42.667 19.2 42.667 42.667s-19.2 42.667-42.667 42.667h-128c-23.467 0-42.667-19.2-42.667-42.667v-128c0-23.467 19.2-42.667 42.667-42.667zM682.667 618.667v85.333c0 23.467-19.2 42.667-42.667 42.667s-42.667-19.2-42.667-42.667v-128c0-23.467 19.2-42.667 42.667-42.667h128c23.467 0 42.667 19.2 42.667 42.667s-19.2 42.667-42.667 42.667h-85.333z" />
<glyph unicode="&#xe929;" glyph-name="fullscreen" d="M256 362.667c-23.467 0-42.667-19.2-42.667-42.667v-128c0-23.467 19.2-42.667 42.667-42.667h128c23.467 0 42.667 19.2 42.667 42.667s-19.2 42.667-42.667 42.667h-85.333v85.333c0 23.467-19.2 42.667-42.667 42.667zM256 533.333c23.467 0 42.667 19.2 42.667 42.667v85.333h85.333c23.467 0 42.667 19.2 42.667 42.667s-19.2 42.667-42.667 42.667h-128c-23.467 0-42.667-19.2-42.667-42.667v-128c0-23.467 19.2-42.667 42.667-42.667zM725.333 234.667h-85.333c-23.467 0-42.667-19.2-42.667-42.667s19.2-42.667 42.667-42.667h128c23.467 0 42.667 19.2 42.667 42.667v128c0 23.467-19.2 42.667-42.667 42.667s-42.667-19.2-42.667-42.667v-85.333zM597.333 704c0-23.467 19.2-42.667 42.667-42.667h85.333v-85.333c0-23.467 19.2-42.667 42.667-42.667s42.667 19.2 42.667 42.667v128c0 23.467-19.2 42.667-42.667 42.667h-128c-23.467 0-42.667-19.2-42.667-42.667z" />
<glyph unicode="&#xe92a;" glyph-name="groups" d="M682.667 490.667c70.827 0 127.573 57.173 127.573 128s-56.747 128-127.573 128c-70.827 0-128-57.173-128-128s57.173-128 128-128zM341.333 490.667c70.827 0 127.573 57.173 127.573 128s-56.747 128-127.573 128c-70.827 0-128-57.173-128-128s57.173-128 128-128zM341.333 405.333c-99.413 0-298.667-49.92-298.667-149.333v-64c0-23.467 19.2-42.667 42.667-42.667h512c23.467 0 42.667 19.2 42.667 42.667v64c0 99.413-199.253 149.333-298.667 149.333zM682.667 405.333c-12.373 0-26.453-0.853-41.387-2.133 0.853-0.427 1.28-1.28 1.707-1.707 48.64-35.413 82.347-82.773 82.347-145.493v-64c0-14.933-2.987-29.44-7.68-42.667h221.013c23.467 0 42.667 19.2 42.667 42.667v64c0 99.413-199.253 149.333-298.667 149.333z" />
<glyph unicode="&#xe92b;" glyph-name="guide-delivery" d="M676.059 740.404c92.186-21.392 127.449-75.296 171.66-149.49h-171.66v149.49zM261.92 584.684c18.049 0 31.15-8.712 31.15-29.074 0-17.173-13.896-31.102-31.061-31.15h-188.192c-17.206 0-31.15-13.953-31.15-31.15 0-17.206 13.945-31.15 31.15-31.15h280.354c17.368 0 31.272-13.937 31.272-31.15 0-17.206-13.945-31.15-31.15-31.15h-280.476c-17.206 0-31.15-13.945-31.15-31.15s13.945-31.15 31.15-31.15h68.531v-93.451c0-17.206 13.945-31.15 31.15-31.15h62.617c11.162-54.984 59.746-95.528 117.017-95.528s105.855 40.544 117.017 95.528h191.689c11.162-54.984 59.746-95.528 117.017-95.528s105.855 40.544 117.017 95.528h54.31c17.206 0 31.15 13.945 31.15 31.15v186.903c0 91.399-96.404 97.467-96.493 97.605h-239.931c-17.206 0-31.15 13.945-31.15 31.15v186.903h-440.26c-17.206 0-31.15-13.945-31.15-31.15v-68.531h-37.381c-17.206 0-31.15-13.945-31.15-31.15s13.945-31.15 31.15-31.15h156.953zM819.237 277.22c22.3-22.3 22.3-58.472 0-80.772-35.872-35.872-97.491-10.351-97.491 40.39 0 50.733 61.619 76.254 97.491 40.382v0zM393.515 277.22c22.3-22.3 22.3-58.472 0-80.772-35.872-35.872-97.491-10.351-97.491 40.39 0 50.733 61.619 76.254 97.491 40.382v0z" />
<glyph unicode="&#xe92c;" glyph-name="guide-ecommerce" d="M298.667 192c-46.933 0-84.907-38.4-84.907-85.333s37.973-85.333 84.907-85.333c46.933 0 85.333 38.4 85.333 85.333s-38.4 85.333-85.333 85.333zM42.667 832c0-23.467 19.2-42.667 42.667-42.667h42.667l153.6-323.84-57.6-104.107c-31.147-57.173 9.813-126.72 74.667-126.72h469.333c23.467 0 42.667 19.2 42.667 42.667s-19.2 42.667-42.667 42.667h-469.333l46.933 85.333h317.867c32 0 60.16 17.493 74.667 43.947l152.747 276.907c15.787 28.16-4.693 63.147-37.12 63.147h-631.467l-28.587 61.013c-6.827 14.933-22.187 24.32-38.4 24.32h-69.973c-23.467 0-42.667-19.2-42.667-42.667zM725.333 192c-46.933 0-84.907-38.4-84.907-85.333s37.973-85.333 84.907-85.333c46.933 0 85.333 38.4 85.333 85.333s-38.4 85.333-85.333 85.333z" />
<glyph unicode="&#xe92d;" glyph-name="guide-group" d="M512 874.667c-235.52 0-426.667-191.147-426.667-426.667s191.147-426.667 426.667-426.667c235.52 0 426.667 191.147 426.667 426.667s-191.147 426.667-426.667 426.667zM341.333 213.333c-58.88 0-106.667 47.787-106.667 106.667s47.787 106.667 106.667 106.667c58.88 0 106.667-47.787 106.667-106.667s-47.787-106.667-106.667-106.667zM405.333 618.667c0 58.88 47.787 106.667 106.667 106.667s106.667-47.787 106.667-106.667c0-58.88-47.787-106.667-106.667-106.667s-106.667 47.787-106.667 106.667zM682.667 213.333c-58.88 0-106.667 47.787-106.667 106.667s47.787 106.667 106.667 106.667c58.88 0 106.667-47.787 106.667-106.667s-47.787-106.667-106.667-106.667z" />
<glyph unicode="&#xe92e;" glyph-name="guide-subgroup" d="M487.253 857.6c14.933 10.24 34.56 10.24 49.067 0v0l393.387-275.2c5.547-3.84 8.96-10.667 8.96-17.493v0-52.907c0-11.947-9.387-21.333-21.333-21.333v0h-64v-384h42.667c23.467 0 42.667-19.2 42.667-42.667s-19.2-42.667-42.667-42.667v0h-768c-23.467 0-42.667 19.2-42.667 42.667s19.2 42.667 42.667 42.667v0h42.667v384h-64c-11.947 0-21.333 9.387-21.333 21.333v0 52.907c0 6.827 3.413 13.653 8.96 17.493v0zM512 576c-18.773 0-34.133-15.36-34.133-34.133v0-102.4h-102.4c-18.773 0-34.133-15.36-34.133-34.133s15.36-34.133 34.133-34.133v0h102.4v-187.733c0-18.773 15.36-34.133 34.133-34.133s34.133 15.36 34.133 34.133v0 187.733h102.4c18.773 0 34.133 15.36 34.133 34.133s-15.36 34.133-34.133 34.133v0h-102.4v102.4c0 18.773-15.36 34.133-34.133 34.133z" />
<glyph unicode="&#xe92f;" glyph-name="home" d="M419.144 110.112v230.561h185.506v-230.561c0-25.362 20.869-46.112 46.376-46.112h139.129c25.507 0 46.376 20.751 46.376 46.112v322.786h78.84c21.333 0 31.536 26.284 15.304 40.118l-387.707 347.225c-17.623 15.678-44.521 15.678-62.144 0l-387.707-347.225c-15.768-13.834-6.029-40.118 15.304-40.118h78.84v-322.786c0-25.362 20.869-46.112 46.376-46.112h139.129c25.507 0 46.376 20.751 46.376 46.112z" />
<glyph unicode="&#xe930;" glyph-name="house" d="M810.667 563.2v183.467c0 23.467-19.2 42.667-42.667 42.667h-42.667c-23.467 0-42.667-19.2-42.667-42.667v-68.267l-142.080 128c-16.213 14.507-40.96 14.507-57.173 0l-356.693-321.28c-14.507-12.8-5.547-37.12 14.080-37.12h72.533v-298.667c0-23.467 19.2-42.667 42.667-42.667h128c23.467 0 42.667 19.2 42.667 42.667v213.333h170.667v-213.333c0-23.467 19.2-42.667 42.667-42.667h128c23.467 0 42.667 19.2 42.667 42.667v298.667h72.533c19.627 0 29.013 24.32 14.080 37.12l-86.613 78.080zM426.667 533.333c0 46.933 38.4 85.333 85.333 85.333s85.333-38.4 85.333-85.333h-170.667z" />
<glyph unicode="&#xe931;" glyph-name="id-card" d="M867.556 746.667c39.111 0 71.111-29.867 71.111-66.37v0l-0.356-464.593c0-36.504-31.644-66.37-70.756-66.37v0h-711.111c-39.111 0-71.111 29.867-71.111 66.37v0 464.593c0 36.504 32 66.37 71.111 66.37v0zM356.848 373.333c-64.646 0-193.939-40.065-193.939-112.911v0-36.423h387.879v36.423c0 72.846-129.293 112.911-193.939 112.911zM746.182 448h-119.273c-20.619 0-37.333-16.715-37.333-37.333s16.715-37.333 37.333-37.333v0h119.273c20.619 0 37.333 16.715 37.333 37.333s-16.715 37.333-37.333 37.333v0zM356.848 661.333c-64.388 0-116.364-50.027-116.364-112s51.976-112 116.364-112c64.388 0 116.364 50.027 116.364 112s-51.976 112-116.364 112zM823.758 597.333h-196.848c-20.619 0-37.333-16.715-37.333-37.333s16.715-37.333 37.333-37.333v0h196.848c20.619 0 37.333 16.715 37.333 37.333s-16.715 37.333-37.333 37.333v0z" />
<glyph unicode="&#xe932;" glyph-name="image" d="M896 149.333v597.333c0 46.933-38.4 85.333-85.333 85.333h-597.333c-46.933 0-85.333-38.4-85.333-85.333v-597.333c0-46.933 38.4-85.333 85.333-85.333h597.333c46.933 0 85.333 38.4 85.333 85.333zM379.733 363.52l89.6-107.947 132.267 170.24c8.533 11.093 25.6 11.093 34.133-0.427l149.76-199.68c10.667-14.080 0.427-34.133-17.067-34.133h-511.573c-17.92 0-27.733 20.48-16.64 34.56l106.24 136.533c8.107 11.093 24.32 11.52 33.28 0.853z" />
<glyph unicode="&#xe933;" glyph-name="info" d="M512 874.667c-235.52 0-426.667-191.147-426.667-426.667s191.147-426.667 426.667-426.667c235.52 0 426.667 191.147 426.667 426.667s-191.147 426.667-426.667 426.667zM554.667 234.667h-85.333v256h85.333v-256zM554.667 576h-85.333v85.333h85.333v-85.333z" />
<glyph unicode="&#xe934;" glyph-name="insert-link" d="M168.96 474.453c11.947 62.72 70.827 105.813 134.827 105.813h125.013c22.187 0 40.533 18.347 40.533 40.533s-18.347 40.533-40.533 40.533h-120.747c-111.36 0-210.773-81.493-221.44-192.427-12.373-127.147 87.467-234.24 212.053-234.24h130.133c22.187 0 40.533 18.347 40.533 40.533s-18.347 40.533-40.533 40.533h-130.133c-81.493 0-145.92 74.24-129.707 158.72zM384 405.333h256c23.467 0 42.667 19.2 42.667 42.667s-19.2 42.667-42.667 42.667h-256c-23.467 0-42.667-19.2-42.667-42.667s19.2-42.667 42.667-42.667zM715.947 661.333h-120.747c-22.187 0-40.533-18.347-40.533-40.533s18.347-40.533 40.533-40.533h125.013c64 0 122.88-43.093 134.827-105.813 16.213-84.48-48.213-158.72-129.707-158.72h-130.133c-22.187 0-40.533-18.347-40.533-40.533s18.347-40.533 40.533-40.533h130.133c124.587 0 224.427 107.093 212.48 234.24-10.667 110.933-110.507 192.427-221.867 192.427z" />
<glyph unicode="&#xe935;" glyph-name="instagram" d="M754 960h-484c-148.875 0-270-121.125-270-270v-484c0-148.875 121.125-270 270-270h484c148.875 0 270 121.125 270 270v484c0 148.875-121.125 270-270 270zM844 296c0-99.25-80.75-180-180-180h-304c-99.25 0-180 80.75-180 180v304c0 99.25 80.75 180 180 180h304c99.25 0 180-80.75 180-180v-304zM664 720h-304c-66.172 0-120-53.828-120-120v-304c0-66.172 53.828-120 120-120h304c66.172 0 120 53.828 120 120v304c0 66.172-53.828 120-120 120zM512 298c-82.711 0-150 67.289-150 150s67.289 150 150 150c82.711 0 150-67.289 150-150s-67.289-150-150-150zM512 538c49.703 0 90-40.297 90-90s-40.297-90-90-90c-49.703 0-90 40.297-90 90s40.297 90 90 90zM684 650c16.57 0 30-13.43 30-30s-13.43-30-30-30c-16.57 0-30 13.43-30 30s13.43 30 30 30z" />
<glyph unicode="&#xe936;" glyph-name="jesus" d="M256 490.667h-170.667c-23.467 0-42.667-19.2-42.667-42.667s19.2-42.667 42.667-42.667h170.667c23.467 0 42.667 19.2 42.667 42.667s-19.2 42.667-42.667 42.667zM361.387 658.773l-30.72 30.72c-16.64 16.64-43.52 16.64-60.16 0s-16.64-43.52 0-60.16l30.293-30.293c16.64-16.64 43.52-16.64 60.16 0 16.64 16.213 16.64 43.52 0.427 59.733zM512 917.333c-23.893 0-42.667-19.2-42.667-42.667v-170.667c0-23.467 19.2-42.667 42.667-42.667s42.667 19.2 42.667 42.667v170.667c0 23.467-19.2 42.667-42.667 42.667zM753.493 689.067c-16.64 16.64-43.52 16.64-60.16 0l-30.293-30.293c-16.64-16.64-16.64-43.52 0-60.16s43.52-16.64 60.16 0l30.293 30.293c16.213 16.64 16.213 43.947 0 60.16v0zM725.333 448c0-23.893 19.2-42.667 42.667-42.667h170.667c23.467 0 42.667 19.2 42.667 42.667s-19.2 42.667-42.667 42.667h-170.667c-23.467 0-42.667-19.2-42.667-42.667zM512 576c-70.827 0-128-57.173-128-128s57.173-128 128-128c70.827 0 128 57.173 128 128s-57.173 128-128 128zM662.613 237.227l30.293-30.293c16.64-16.64 43.52-16.64 60.16 0s16.64 43.52 0 60.16l-30.293 30.293c-16.64 16.64-43.52 16.64-60.16 0-16.213-16.64-16.213-43.947 0-60.16v0zM270.507 206.933c16.64-16.64 43.52-16.64 60.16 0l30.293 30.293c16.64 16.64 16.64 43.52 0 60.16s-43.52 16.64-60.16 0l-30.293-30.293c-16.213-16.64-16.213-43.947 0-60.16v0zM512-21.333c23.893 0 42.667 19.2 42.667 42.667v170.667c0 23.467-19.2 42.667-42.667 42.667s-42.667-19.2-42.667-42.667v-170.667c0-23.467 19.2-42.667 42.667-42.667z" />
<glyph unicode="&#xe937;" glyph-name="leadership" d="M725.333 832h-426.667c-46.933 0-84.907-38.4-84.907-85.333l-0.427-682.667 298.667 128 298.667-128v682.667c0 46.933-38.4 85.333-85.333 85.333z" />
<glyph unicode="&#xe938;" glyph-name="Leadership1" d="M725.333 832h-426.667c-46.933 0-84.907-38.4-84.907-85.333l-0.427-682.667 298.667 128 298.667-128v682.667c0 46.933-38.4 85.333-85.333 85.333z" />
<glyph unicode="&#xe939;" glyph-name="live" d="M725.333 512v149.333c0 23.467-19.2 42.667-42.667 42.667h-512c-23.467 0-42.667-19.2-42.667-42.667v-426.667c0-23.467 19.2-42.667 42.667-42.667h512c23.467 0 42.667 19.2 42.667 42.667v149.333l97.707-97.707c26.88-26.88 72.96-7.68 72.96 30.293v263.253c0 37.973-46.080 57.173-72.96 30.293l-97.707-98.133z" />
<glyph unicode="&#xe93a;" glyph-name="location-me" d="M512 832c165.12 0 298.667-133.547 298.667-298.667 0-177.92-188.587-423.253-265.813-516.693-17.067-20.48-48.213-20.48-65.28 0-77.653 93.44-266.24 338.773-266.24 516.693 0 165.12 133.547 298.667 298.667 298.667zM512 490.667c-56.96 0-170.667-28.587-170.667-85.333v-21.333c0-11.733 9.6-21.333 21.333-21.333h298.667c11.733 0 21.333 9.6 21.333 21.333v21.333c0 56.747-113.707 85.333-170.667 85.333zM512 704c-47.147 0-85.333-38.187-85.333-85.333s38.187-85.333 85.333-85.333c47.147 0 85.333 38.187 85.333 85.333s-38.187 85.333-85.333 85.333z" />
<glyph unicode="&#xe93b;" glyph-name="location" d="M512 874.667c165.12 0 298.667-133.547 298.667-298.667 0-224-298.667-554.667-298.667-554.667s-298.667 330.667-298.667 554.667c0 165.12 133.547 298.667 298.667 298.667zM512 682.667c-58.91 0-106.667-47.756-106.667-106.667s47.756-106.667 106.667-106.667c58.91 0 106.667 47.756 106.667 106.667s-47.756 106.667-106.667 106.667z" />
<glyph unicode="&#xe93c;" glyph-name="login" d="M512 448c94.293 0 170.667 76.373 170.667 170.667s-76.373 170.667-170.667 170.667c-94.293 0-170.667-76.373-170.667-170.667s76.373-170.667 170.667-170.667zM512 362.667c-113.92 0-341.333-57.173-341.333-170.667v-42.667c0-23.467 19.2-42.667 42.667-42.667h597.333c23.467 0 42.667 19.2 42.667 42.667v42.667c0 113.493-227.413 170.667-341.333 170.667z" />
<glyph unicode="&#xe93d;" glyph-name="logout" d="M454.637 244.622c18.489-18.489 48.356-18.489 66.844 0l170.193 170.193c18.489 18.489 18.489 48.356 0 66.844l-170.193 170.193c-18.489 18.489-48.356 18.489-66.844 0s-18.489-48.356 0-66.844l89.126-89.6h-411.022c-26.074 0-47.407-21.333-47.407-47.407s21.333-47.407 47.407-47.407h411.022l-89.126-89.126c-18.489-18.489-18.015-48.83 0-66.844zM843.852 874.667h-663.704c-52.622 0-94.815-42.667-94.815-94.815v-142.222c0-26.074 21.333-47.407 47.407-47.407s47.407 21.333 47.407 47.407v94.815c0 26.074 21.333 47.407 47.407 47.407h568.889c26.074 0 47.407-21.333 47.407-47.407v-568.889c0-26.074-21.333-47.407-47.407-47.407h-568.889c-26.074 0-47.407 21.333-47.407 47.407v94.815c0 26.074-21.333 47.407-47.407 47.407s-47.407-21.333-47.407-47.407v-142.222c0-52.148 42.667-94.815 94.815-94.815h663.704c52.148 0 94.815 42.667 94.815 94.815v663.704c0 52.148-42.667 94.815-94.815 94.815z" />
<glyph unicode="&#xe93e;" glyph-name="mail" d="M853.333 789.333h-682.667c-46.933 0-84.907-38.4-84.907-85.333l-0.427-512c0-46.933 38.4-85.333 85.333-85.333h682.667c46.933 0 85.333 38.4 85.333 85.333v512c0 46.933-38.4 85.333-85.333 85.333zM836.267 608l-301.653-188.587c-13.653-8.533-31.573-8.533-45.227 0l-301.653 188.587c-10.667 6.827-17.067 18.347-17.067 30.72 0 28.587 31.147 45.653 55.467 30.72l285.867-178.773 285.867 178.773c24.32 14.933 55.467-2.133 55.467-30.72 0-12.373-6.4-23.893-17.067-30.72z" />
<glyph unicode="&#xe93f;" glyph-name="membership" d="M512 188.823l186.234-117.859c34.106-21.6 75.84 10.33 66.865 50.712l-49.363 221.631 164.694 149.319c30.067 27.234 13.911 78.886-25.579 82.173l-216.75 19.252-84.815 209.423c-15.258 38.034-67.314 38.034-82.571 0l-84.815-208.953-216.75-19.252c-39.491-3.287-55.646-54.938-25.579-82.173l164.694-149.319-49.363-221.631c-8.975-40.382 32.759-72.312 66.865-50.712l186.234 117.389z" />
<glyph unicode="&#xe940;" glyph-name="menu" d="M170.667 192h682.667c23.467 0 42.667 19.2 42.667 42.667s-19.2 42.667-42.667 42.667h-682.667c-23.467 0-42.667-19.2-42.667-42.667s19.2-42.667 42.667-42.667zM170.667 405.333h682.667c23.467 0 42.667 19.2 42.667 42.667s-19.2 42.667-42.667 42.667h-682.667c-23.467 0-42.667-19.2-42.667-42.667s19.2-42.667 42.667-42.667zM128 661.333c0-23.467 19.2-42.667 42.667-42.667h682.667c23.467 0 42.667 19.2 42.667 42.667s-19.2 42.667-42.667 42.667h-682.667c-23.467 0-42.667-19.2-42.667-42.667z" />
<glyph unicode="&#xe941;" glyph-name="money" d="M503.467 494.933c-96.853 25.173-128 51.2-128 91.733 0 46.507 43.093 78.933 115.2 78.933 75.947 0 104.107-36.267 106.667-89.6h94.293c-2.987 73.387-47.787 140.8-136.96 162.56v93.44h-128v-92.16c-82.773-17.92-149.333-71.68-149.333-154.027 0-98.56 81.493-147.627 200.533-176.213 106.667-25.6 128-63.147 128-102.827 0-29.44-20.907-76.373-115.2-76.373-87.893 0-122.453 39.253-127.147 89.6h-93.867c5.12-93.44 75.093-145.92 157.013-163.413v-92.587h128v91.733c83.2 15.787 149.333 64 149.333 151.467 0 121.173-103.68 162.56-200.533 187.733z" />
<glyph unicode="&#xe942;" glyph-name="more" d="M512 618.667c46.933 0 85.333 38.4 85.333 85.333s-38.4 85.333-85.333 85.333c-46.933 0-85.333-38.4-85.333-85.333s38.4-85.333 85.333-85.333zM512 533.333c-46.933 0-85.333-38.4-85.333-85.333s38.4-85.333 85.333-85.333c46.933 0 85.333 38.4 85.333 85.333s-38.4 85.333-85.333 85.333zM512 277.333c-46.933 0-85.333-38.4-85.333-85.333s38.4-85.333 85.333-85.333c46.933 0 85.333 38.4 85.333 85.333s-38.4 85.333-85.333 85.333z" />
<glyph unicode="&#xe943;" glyph-name="mykids" d="M818.763 732.444c-29.511 0-53.333-23.822-53.333-53.333v-177.778c0-9.956-7.822-17.778-17.778-17.778s-17.778 7.822-17.778 17.778v284.444c0 29.511-23.822 53.333-53.333 53.333s-53.333-23.822-53.333-53.333v-284.444c0-9.956-7.822-17.778-17.778-17.778s-17.778 7.822-17.778 17.778v320c0 29.511-23.822 53.333-53.333 53.333s-53.333-23.822-53.333-53.333v-319.644c0-9.956-7.822-17.778-17.778-17.778s-17.778 7.822-17.778 17.778v212.978c0 29.511-23.822 53.333-53.333 53.333s-53.333-23.822-53.333-53.333v-405.689l-146.489 83.556c-20.622 11.733-46.222 8.533-63.289-7.822-21.333-20.622-22.044-54.756-1.067-75.733l241.067-244.978c26.667-27.378 62.933-42.667 101.333-42.667h259.556c78.578 0 142.222 63.644 142.222 142.222v515.556c0 29.511-23.822 53.333-53.333 53.333z" />
<glyph unicode="&#xe944;" glyph-name="net" d="M511.573 874.667c-235.52 0-426.24-191.147-426.24-426.667s190.72-426.667 426.24-426.667c235.947 0 427.093 191.147 427.093 426.667s-191.147 426.667-427.093 426.667zM807.253 618.667h-125.867c-13.653 53.333-33.28 104.533-58.88 151.893 78.507-26.88 143.787-81.493 184.747-151.893zM512 787.627c35.413-51.2 63.147-107.947 81.493-168.96h-162.987c18.347 61.013 46.080 117.76 81.493 168.96zM181.76 362.667c-6.827 27.307-11.093 55.893-11.093 85.333s4.267 58.027 11.093 85.333h144.213c-3.413-28.16-5.973-56.32-5.973-85.333s2.56-57.173 5.973-85.333h-144.213zM216.747 277.333h125.867c13.653-53.333 33.28-104.533 58.88-151.893-78.507 26.88-143.787 81.067-184.747 151.893v0zM342.613 618.667h-125.867c40.96 70.827 106.24 125.013 184.747 151.893-25.6-47.36-45.227-98.56-58.88-151.893v0zM512 108.373c-35.413 51.2-63.147 107.947-81.493 168.96h162.987c-18.347-61.013-46.080-117.76-81.493-168.96zM611.84 362.667h-199.68c-3.84 28.16-6.827 56.32-6.827 85.333s2.987 57.6 6.827 85.333h199.68c3.84-27.733 6.827-56.32 6.827-85.333s-2.987-57.173-6.827-85.333zM622.507 125.44c25.6 47.36 45.227 98.56 58.88 151.893h125.867c-40.96-70.4-106.24-125.013-184.747-151.893v0zM698.027 362.667c3.413 28.16 5.973 56.32 5.973 85.333s-2.56 57.173-5.973 85.333h144.213c6.827-27.307 11.093-55.893 11.093-85.333s-4.267-58.027-11.093-85.333h-144.213z" />
<glyph unicode="&#xe945;" glyph-name="news" d="M746.987 789.333c61.895 0 127.631-9.023 182.27-32.401 31.161-13.534 52.077-42.654 52.077-75.875v0-462.63c0-53.727-52.077-93.1-105.861-79.566-41.832 10.253-86.226 14.765-128.912 14.765-66.59 0-137.449-10.253-194.648-37.732-25.185-12.304-54.211-12.304-79.823 0-57.199 27.069-128.058 37.732-194.648 37.732-42.686 0-87.080-4.511-128.912-14.765-53.784-13.124-105.861 26.249-105.861 79.566v0 462.63c0 33.221 20.916 62.34 52.077 75.875 55.065 23.378 120.802 32.401 182.696 32.401 83.238 0 172.879-16.405 234.773-61.52 61.895 45.115 151.536 61.52 234.773 61.52zM746.987 707.307c-72.566 0-177.147-26.659-234.773-61.52v0-472.063c57.626 34.861 162.207 61.52 234.773 61.52 32.868 0 66.163-2.461 98.178-8.203 26.465-4.511 51.223 14.355 51.223 40.193v0 388.396c0 19.276-14.513 36.092-34.149 40.193-37.137 7.793-75.981 11.484-115.252 11.484zM815.711 382.481c17.501-2.051 30.307-17.226 28.173-34.041s-17.928-28.709-35.429-27.069c-69.151 7.793-144.706 1.641-201.905-15.995-3.415-0.82-6.83-1.23-9.818-1.23-13.66 0-26.039 8.203-30.307 21.327-5.549 15.995 3.842 33.631 20.489 38.553 65.31 20.507 150.682 27.069 228.797 18.456zM815.711 491.577c17.501-2.051 30.307-17.226 28.173-34.041s-17.928-29.119-35.429-27.069c-69.151 7.793-144.706 1.641-201.905-15.995-3.415-0.82-6.83-1.23-9.818-1.23-13.66 0-26.039 8.203-30.307 21.327-5.549 15.995 3.842 33.631 20.489 38.553 65.31 20.507 150.682 27.069 228.797 18.456zM815.711 600.672c17.501-2.051 30.307-17.226 28.173-34.041s-17.928-29.119-35.429-27.069c-69.151 7.793-144.706 1.641-201.905-15.995-3.415-0.41-6.83-1.23-9.818-1.23-13.66 0-26.039 8.203-30.307 21.327-5.549 15.995 3.842 33.631 20.489 38.553 65.737 20.507 150.682 27.069 228.797 18.456z" />
<glyph unicode="&#xe946;" glyph-name="notes" d="M622.507 849.493c-16.213 16.213-37.973 25.173-60.587 25.173h-305.92c-46.933 0-85.333-38.4-85.333-85.333v-682.667c0-46.933 37.973-85.333 84.907-85.333h512.427c46.933 0 85.333 38.4 85.333 85.333v476.587c0 22.613-8.96 44.373-25.173 60.16l-205.653 206.080zM640 192h-256c-23.467 0-42.667 19.2-42.667 42.667s19.2 42.667 42.667 42.667h256c23.467 0 42.667-19.2 42.667-42.667s-19.2-42.667-42.667-42.667zM640 362.667h-256c-23.467 0-42.667 19.2-42.667 42.667s19.2 42.667 42.667 42.667h256c23.467 0 42.667-19.2 42.667-42.667s-19.2-42.667-42.667-42.667zM554.667 618.667v192l234.667-234.667h-192c-23.467 0-42.667 19.2-42.667 42.667z" />
<glyph unicode="&#xe947;" glyph-name="notification" d="M512.055 21.333c49.5 0 89.999 39.385 89.999 87.521h-179.999c0-48.137 40.050-87.521 89.999-87.521zM782.053 283.897v218.803c0 134.345-73.799 246.81-202.498 276.568v29.757c0 36.321-30.15 65.641-67.499 65.641s-67.499-29.32-67.499-65.641v-29.757c-129.149-29.757-202.498-141.785-202.498-276.568v-218.803l-58.050-56.451c-28.35-27.569-8.55-74.831 31.5-74.831h592.645c40.050 0 60.3 47.262 31.95 74.831l-58.050 56.451z" />
<glyph unicode="&#xe948;" glyph-name="page" d="M511.573 874.667c-235.52 0-426.24-191.147-426.24-426.667s190.72-426.667 426.24-426.667c235.947 0 427.093 191.147 427.093 426.667s-191.147 426.667-427.093 426.667zM807.253 618.667h-125.867c-13.653 53.333-33.28 104.533-58.88 151.893 78.507-26.88 143.787-81.493 184.747-151.893zM512 787.627c35.413-51.2 63.147-107.947 81.493-168.96h-162.987c18.347 61.013 46.080 117.76 81.493 168.96zM181.76 362.667c-6.827 27.307-11.093 55.893-11.093 85.333s4.267 58.027 11.093 85.333h144.213c-3.413-28.16-5.973-56.32-5.973-85.333s2.56-57.173 5.973-85.333h-144.213zM216.747 277.333h125.867c13.653-53.333 33.28-104.533 58.88-151.893-78.507 26.88-143.787 81.067-184.747 151.893v0zM342.613 618.667h-125.867c40.96 70.827 106.24 125.013 184.747 151.893-25.6-47.36-45.227-98.56-58.88-151.893v0zM512 108.373c-35.413 51.2-63.147 107.947-81.493 168.96h162.987c-18.347-61.013-46.080-117.76-81.493-168.96zM611.84 362.667h-199.68c-3.84 28.16-6.827 56.32-6.827 85.333s2.987 57.6 6.827 85.333h199.68c3.84-27.733 6.827-56.32 6.827-85.333s-2.987-57.173-6.827-85.333zM622.507 125.44c25.6 47.36 45.227 98.56 58.88 151.893h125.867c-40.96-70.4-106.24-125.013-184.747-151.893v0zM698.027 362.667c3.413 28.16 5.973 56.32 5.973 85.333s-2.56 57.173-5.973 85.333h144.213c6.827-27.307 11.093-55.893 11.093-85.333s-4.267-58.027-11.093-85.333h-144.213z" />
<glyph unicode="&#xe949;" glyph-name="password" d="M736 576h-37.333v73.143c0 100.937-83.627 182.857-186.667 182.857s-186.667-81.92-186.667-182.857v-73.143h-37.333c-41.067 0-74.667-32.914-74.667-73.143v-365.714c0-40.229 33.6-73.143 74.667-73.143h448c41.067 0 74.667 32.914 74.667 73.143v365.714c0 40.229-33.6 73.143-74.667 73.143zM512 246.857c-41.067 0-74.667 32.914-74.667 73.143s33.6 73.143 74.667 73.143c41.067 0 74.667-32.914 74.667-73.143s-33.6-73.143-74.667-73.143zM627.733 576h-231.467v73.143c0 62.537 51.893 113.371 115.733 113.371s115.733-50.834 115.733-113.371v-73.143z" />
<glyph unicode="&#xe94a;" glyph-name="pause" d="M284.444 64c62.578 0 113.778 49.371 113.778 109.714v548.571c0 60.343-51.2 109.714-113.778 109.714s-113.778-49.371-113.778-109.714v-548.571c0-60.343 51.2-109.714 113.778-109.714zM625.778 722.286v-548.571c0-60.343 51.2-109.714 113.778-109.714s113.778 49.371 113.778 109.714v548.571c0 60.343-51.2 109.714-113.778 109.714s-113.778-49.371-113.778-109.714z" />
<glyph unicode="&#xe94b;" glyph-name="phone" d="M820.48 308.907l-108.373 12.373c-26.027 2.987-51.627-5.973-69.973-24.32l-78.507-78.507c-120.747 61.44-219.733 160-281.173 281.173l78.933 78.933c18.347 18.347 27.307 43.947 24.32 69.973l-12.373 107.52c-5.12 43.093-41.387 75.52-84.907 75.52h-73.813c-48.213 0-88.32-40.107-85.333-88.32 22.613-364.373 314.027-655.36 677.973-677.973 48.213-2.987 88.324 37.12 88.324 85.333v73.813c0.423 43.093-32.004 79.36-75.097 84.48z" />
<glyph unicode="&#xe94c;" glyph-name="play" d="M213.333 769.791v-643.582c0-49.076 58.543-78.895 103.628-52.182l547.748 321.791c41.72 24.228 41.72 80.137 0 104.986l-547.748 321.17c-45.085 26.712-103.628-3.106-103.628-52.182z" />
<glyph unicode="&#xe94d;" glyph-name="plus" d="M819.2 371.2h-230.4v-230.4c0-42.24-34.56-76.8-76.8-76.8s-76.8 34.56-76.8 76.8v230.4h-230.4c-42.24 0-76.8 34.56-76.8 76.8s34.56 76.8 76.8 76.8h230.4v230.4c0 42.24 34.56 76.8 76.8 76.8s76.8-34.56 76.8-76.8v-230.4h230.4c42.24 0 76.8-34.56 76.8-76.8s-34.56-76.8-76.8-76.8z" />
<glyph unicode="&#xe94e;" glyph-name="podcast" d="M512 320c70.827 0 127.573 57.173 127.573 128l0.427 256c0 70.827-57.173 128-128 128s-128-57.173-128-128v-256c0-70.827 57.173-128 128-128zM738.133 448c0-128-108.373-217.6-226.133-217.6s-226.133 89.6-226.133 217.6h-72.533c0-145.493 116.053-265.813 256-286.72v-139.947h85.333v139.947c139.947 20.48 256 140.8 256 286.72h-72.533z" />
<glyph unicode="&#xe94f;" glyph-name="pointer" d="M512 874.667c-165.12 0-298.667-133.547-298.667-298.667 0-177.92 188.587-423.253 266.24-516.693 17.067-20.48 48.213-20.48 65.28 0 77.227 93.44 265.813 338.773 265.813 516.693 0 165.12-133.547 298.667-298.667 298.667zM512 469.333c-58.88 0-106.667 47.787-106.667 106.667s47.787 106.667 106.667 106.667c58.88 0 106.667-47.787 106.667-106.667s-47.787-106.667-106.667-106.667z" />
<glyph unicode="&#xe950;" glyph-name="prayer" d="M613.406 831.343c43.642 4.794 90.233-17.024 103.128-53.357v0l125.838-360.091c11.991-31.608 14.185-65.393 6.378-97.815v0l-33.227-229.925c-2.157-14.933-17.236-26.156-35.135-26.156v0h-226.275v371.175c0 56.718 112.142 56.718 112.142 0v0-164.571c0-38.378 70.786-38.269 70.786 0v0 164.571c0 66.005-76.915 113.421-152.143 101.006v0l-49.974 201.965c-14.056 44.589 25.826 87.413 78.482 93.198zM410.594 831.343c52.656-5.786 92.538-48.609 78.482-93.198l-49.974-201.965c-75.228 12.416-152.143-35.001-152.143-101.006v-164.571c0-38.269 70.786-38.378 70.786 0v164.571c0 56.718 112.142 56.718 112.142 0v-371.175h-226.275c-17.899 0-32.978 11.223-35.135 26.156l-33.227 229.925c-7.807 32.422-5.613 66.206 6.378 97.815l125.838 360.091c12.894 36.333 59.486 58.151 103.128 53.357z" />
<glyph unicode="&#xe951;" glyph-name="price-tag" d="M913.493 465.92l-384 384c-15.36 15.36-36.693 24.747-60.16 24.747h-298.667c-46.933 0-85.333-38.4-85.333-85.333v-298.667c0-23.467 9.387-44.8 25.173-60.587l384-384c15.36-15.36 36.693-24.747 60.16-24.747s44.8 9.387 60.16 25.173l298.667 298.667c15.787 15.36 25.173 36.693 25.173 60.16s-9.813 45.227-25.173 60.587zM234.667 661.333c-35.413 0-64 28.587-64 64s28.587 64 64 64c35.413 0 64-28.587 64-64s-28.587-64-64-64z" />
<glyph unicode="&#xe952;" glyph-name="profile" d="M512 874.667c-235.52 0-426.667-191.147-426.667-426.667s191.147-426.667 426.667-426.667c235.52 0 426.667 191.147 426.667 426.667s-191.147 426.667-426.667 426.667zM512 746.667c70.827 0 128-57.173 128-128s-57.173-128-128-128c-70.827 0-128 57.173-128 128s57.173 128 128 128zM512 140.8c-106.667 0-200.96 54.613-256 137.387 1.28 84.907 170.667 131.413 256 131.413 84.907 0 254.72-46.507 256-131.413-55.040-82.773-149.333-137.387-256-137.387z" />
<glyph unicode="&#xe953;" glyph-name="radio" d="M138.24 697.6c-31.147-11.947-52.907-43.52-52.907-78.933v-512c0-46.933 37.973-85.333 85.333-85.333h682.667c47.36 0 85.333 38.4 85.333 85.333v512c0 47.36-37.973 85.333-85.333 85.333h-499.2l352.427 142.507-29.013 70.827-539.307-219.733zM298.667 106.667c-70.827 0-128 57.173-128 128s57.173 128 128 128c70.827 0 128-57.173 128-128s-57.173-128-128-128zM853.333 448h-85.333v85.333h-85.333v-85.333h-512v170.667h682.667v-170.667z" />
<glyph unicode="&#xe954;" glyph-name="reading-plan" d="M512 471.525c-77.653 71.763-175.787 121.998-285.013 141.416-51.627 8.865-98.987-31.66-98.987-83.583v-263.414c0-70.919 30.72-108.067 72.96-113.555 106.667-13.508 203.52-56.989 282.88-121.154 14.933-12.242 39.253-13.508 54.187-1.689 79.787 64.587 177.493 108.912 285.013 122.42 40.107 5.488 72.96 44.747 72.96 85.272v292.12c0 51.923-47.36 92.448-98.987 83.583-109.227-19.418-207.36-69.653-285.013-141.416v0zM512 621.384c70.827 0 128 56.567 128 126.641s-57.173 126.641-128 126.641c-70.827 0-128-56.567-128-126.641s57.173-126.641 128-126.641z" />
<glyph unicode="&#xe955;" glyph-name="receipt" d="M896 865.707c-5.547 0-11.093-2.133-14.933-6.4l-33.707-33.707c-8.533-8.533-21.76-8.533-30.293 0l-33.707 33.707c-8.533 8.533-21.76 8.533-30.293 0l-33.707-33.707c-8.533-8.533-21.76-8.533-30.293 0l-33.707 33.707c-8.533 8.533-21.76 8.533-30.293 0l-33.707-33.707c-8.533-8.533-21.76-8.533-30.293 0l-33.707 33.707c-8.533 8.533-21.76 8.533-30.293 0l-33.707-33.707c-8.533-8.533-21.76-8.533-30.293 0l-34.133 34.133c-8.533 8.533-21.76 8.533-30.293 0l-33.707-34.133c-8.533-8.533-21.76-8.533-30.293 0l-33.707 34.133c-8.533 8.533-21.76 8.533-30.293 0l-33.707-34.133c-8.533-8.533-21.76-8.533-30.293 0l-33.707 34.133c-3.84 3.84-9.387 5.973-14.933 5.973v-835.84c5.547 0 11.093 2.133 14.933 6.4l33.707 33.707c8.533 8.533 21.76 8.533 30.293 0l33.707-33.707c8.533-8.533 21.76-8.533 30.293 0l33.707 33.707c8.533 8.533 21.76 8.533 30.293 0l33.707-33.707c8.533-8.533 21.76-8.533 30.293 0l33.707 33.707c8.533 8.533 21.76 8.533 30.293 0l33.707-33.707c8.533-8.533 21.76-8.533 30.293 0l33.707 33.707c8.533 8.533 21.76 8.533 30.293 0l33.707-33.707c8.533-8.533 21.76-8.533 30.293 0l33.707 33.707c8.533 8.533 21.76 8.533 30.293 0l33.707-33.707c8.533-8.533 21.76-8.533 30.293 0l33.707 33.707c8.533 8.533 21.76 8.533 30.293 0l33.707-33.707c4.267-4.267 9.813-6.4 14.933-6.4v835.84h0.427zM725.333 234.667h-426.667c-23.467 0-42.667 19.2-42.667 42.667s19.2 42.667 42.667 42.667h426.667c23.467 0 42.667-19.2 42.667-42.667s-19.2-42.667-42.667-42.667zM725.333 405.333h-426.667c-23.467 0-42.667 19.2-42.667 42.667s19.2 42.667 42.667 42.667h426.667c23.467 0 42.667-19.2 42.667-42.667s-19.2-42.667-42.667-42.667zM725.333 576h-426.667c-23.467 0-42.667 19.2-42.667 42.667s19.2 42.667 42.667 42.667h426.667c23.467 0 42.667-19.2 42.667-42.667s-19.2-42.667-42.667-42.667z" />
<glyph unicode="&#xe956;" glyph-name="report" d="M810.667 832h-597.333c-46.933 0-85.333-38.4-85.333-85.333v-597.333c0-46.933 38.4-85.333 85.333-85.333h597.333c46.933 0 85.333 38.4 85.333 85.333v597.333c0 46.933-38.4 85.333-85.333 85.333zM341.333 234.667c-23.467 0-42.667 19.2-42.667 42.667v213.333c0 23.467 19.2 42.667 42.667 42.667s42.667-19.2 42.667-42.667v-213.333c0-23.467-19.2-42.667-42.667-42.667zM512 234.667c-23.467 0-42.667 19.2-42.667 42.667v341.333c0 23.467 19.2 42.667 42.667 42.667s42.667-19.2 42.667-42.667v-341.333c0-23.467-19.2-42.667-42.667-42.667zM682.667 234.667c-23.467 0-42.667 19.2-42.667 42.667v85.333c0 23.467 19.2 42.667 42.667 42.667s42.667-19.2 42.667-42.667v-85.333c0-23.467-19.2-42.667-42.667-42.667z" />
<glyph unicode="&#xe957;" glyph-name="resume" d="M853.333 670.316h-170.667v80.842c0 44.867-37.973 80.842-85.333 80.842h-170.667c-47.36 0-85.333-35.975-85.333-80.842v-80.842h-170.667c-47.36 0-84.907-35.975-84.907-80.842l-0.427-444.632c0-44.867 37.973-80.842 85.333-80.842h682.667c47.36 0 85.333 35.975 85.333 80.842v444.632c0 44.867-37.973 80.842-85.333 80.842zM597.333 670.316h-170.667v80.842h170.667v-80.842z" />
<glyph unicode="&#xe958;" glyph-name="rewind" d="M510.369 736.397v117.201c0 18.903-23.136 28.145-36.418 14.703l-162.38-159.209c-8.569-8.402-8.569-21.424 0-29.825l162.38-159.209c13.282-13.022 36.418-3.781 36.418 14.703v117.621c159.81 0 286.201-143.666 251.068-306.235-20.137-95.357-98.971-172.231-195.799-191.975-152.955-31.506-289.2 71.413-309.765 210.458-2.571 20.164-20.565 35.706-41.988 35.706-25.707 0-46.272-22.264-42.844-47.469 26.564-184.413 205.653-320.938 408.307-282.291 133.675 25.625 241.214 131.064 267.349 262.127 42.416 215.499-124.249 403.693-336.329 403.693zM463.24 274.314h-36.418v136.945l-43.273-13.022v28.985l75.835 26.465h3.856v-179.372zM646.614 348.247c0-13.442-1.285-25.205-4.284-34.446s-7.284-17.643-12.425-23.944c-5.141-6.301-11.996-10.922-19.28-13.863s-15.852-4.201-25.278-4.201c-9.426 0-17.566 1.26-25.278 4.201s-14.139 7.561-19.708 13.863c-5.57 6.301-9.854 14.283-12.853 23.944s-4.713 21.004-4.713 34.446v31.086c0 13.442 1.285 25.205 4.284 34.446s7.284 17.643 12.425 23.944c5.141 6.301 11.996 10.922 19.28 13.863s15.852 4.201 25.278 4.201c9.426 0 17.566-1.26 25.278-4.201s14.139-7.561 19.708-13.863c5.57-6.301 9.854-14.283 12.853-23.944s4.713-21.004 4.713-34.446v-31.086zM610.197 384.374c0 7.981-0.428 14.703-1.714 20.164s-2.999 9.662-5.141 13.022c-2.142 3.361-4.713 5.881-8.14 7.141s-6.855 2.1-10.711 2.1c-3.856 0-7.712-0.84-10.711-2.1s-5.998-3.781-8.14-7.141c-2.142-3.361-3.856-7.561-5.141-13.022s-1.714-12.182-1.714-20.164v-40.747c0-7.981 0.428-14.703 1.714-20.164s2.999-10.082 5.141-13.442c2.142-3.361 4.713-5.881 8.14-7.141s6.855-2.1 10.711-2.1c3.856 0 7.712 0.84 10.711 2.1s5.998 3.781 8.14 7.141c2.142 3.361 3.856 7.981 4.713 13.442s1.714 12.182 1.714 20.164v40.747h0.428z" />
<glyph unicode="&#xe959;" glyph-name="screen" d="M824.889 199.111c43.022 0 77.831 35.2 77.831 78.222l0.391 391.111c0 43.022-35.2 78.222-78.222 78.222h-625.778c-43.022 0-78.222-35.2-78.222-78.222v-391.111c0-43.022 35.2-78.222 78.222-78.222h-117.333c-21.511 0-39.111-17.6-39.111-39.111s17.6-39.111 39.111-39.111h860.444c21.511 0 39.111 17.6 39.111 39.111s-17.6 39.111-39.111 39.111h-117.333zM238.222 668.444h547.556c21.511 0 39.111-17.6 39.111-39.111v-312.889c0-21.511-17.6-39.111-39.111-39.111h-547.556c-21.511 0-39.111 17.6-39.111 39.111v312.889c0 21.511 17.6 39.111 39.111 39.111zM571.713 453.575h-11.863l-4.205 4.052c18.020 21.011 27.33 49.675 22.224 80.14-7.058 41.721-41.896 75.038-83.941 80.14-63.519 7.804-116.977-45.623-109.169-109.105 5.106-42.021 38.442-76.838 80.187-83.892 30.483-5.103 59.164 4.202 80.187 22.211l4.054-4.202v-11.856l63.819-63.782c6.157-6.153 16.218-6.153 22.374 0s6.157 16.208 0 22.361l-63.669 63.932zM483.556 448c-39.348 0-71.111 31.763-71.111 71.111s31.763 71.111 71.111 71.111c39.348 0 71.111-31.763 71.111-71.111s-31.763-71.111-71.111-71.111z" />
<glyph unicode="&#xe95a;" glyph-name="search" d="M711.044 324.36h-39.543l-14.015 13.507c60.065 70.035 91.099 165.583 74.080 267.134-23.526 139.070-139.652 250.125-279.804 267.134-211.73 26.013-389.924-152.076-363.895-363.682 17.018-140.070 128.139-256.128 267.29-279.64 101.61-17.009 197.214 14.007 267.29 74.037l13.515-14.007v-39.52l212.731-212.606c20.522-20.51 54.059-20.51 74.581 0s20.522 54.027 0 74.537l-212.231 213.107zM410.718 324.36c-124.635 0-225.245 100.55-225.245 225.113s100.609 225.113 225.245 225.113c124.635 0 225.245-100.55 225.245-225.113s-100.609-225.113-225.245-225.113z" />
<glyph unicode="&#xe95b;" glyph-name="share" d="M768 271.507c-32.427 0-61.44-12.851-83.627-32.985l-304.213 177.778c2.133 9.853 3.84 19.705 3.84 29.987s-1.707 20.134-3.84 29.987l300.8 176.064c23.040-21.419 53.333-34.699 87.040-34.699 70.827 0 128 57.403 128 128.514s-57.173 128.514-128 128.514c-70.827 0-128-57.403-128-128.514 0-10.281 1.707-20.134 3.84-29.987l-300.8-176.064c-23.040 21.419-53.333 34.699-87.040 34.699-70.827 0-128-57.403-128-128.514s57.173-128.514 128-128.514c33.707 0 64 13.28 87.040 34.699l303.787-178.206c-2.133-8.996-3.413-18.42-3.413-27.845 0-68.969 55.893-125.087 124.587-125.087s124.587 56.118 124.587 125.087c0 68.969-55.893 125.087-124.587 125.087z" />
<glyph unicode="&#xe95c;" glyph-name="songbook" d="M511.936 746.667v-364.8c-40.107 23.040-89.6 32-142.080 13.653-57.173-20.48-101.12-71.253-111.36-130.987-19.627-116.907 79.36-216.747 195.84-198.4 83.627 13.227 142.933 90.027 142.933 174.933v420.267h85.333c46.933 0 85.333 38.4 85.333 85.333s-38.4 85.333-85.333 85.333h-85.333c-46.933 0-85.333-38.4-85.333-85.333z" />
<glyph unicode="&#xe95d;" glyph-name="soundcloud" d="M0 704v-512c0-141.385 114.615-256 256-256h512c141.385 0 256 114.615 256 256v512c0 141.385-114.615 256-256 256h-512c-141.385 0-256-114.615-256-256zM158.132 313.843c-7.887 0-14.28 25.078-14.28 56.013s6.393 56.013 14.28 56.013c7.887 0 14.28-25.078 14.28-56.013s-6.393-56.013-14.28-56.013zM229.522 280.895c-7.887 0-14.28 47.207-14.28 105.435s6.393 105.435 14.28 105.435c7.887 0 14.28-47.207 14.28-105.435s-6.397-105.435-14.28-105.435zM298.444 280.895c-7.887 0-14.28 59.254-14.28 132.345s6.393 132.345 14.28 132.345c7.887 0 14.28-59.254 14.28-132.345-0.004-73.095-6.393-132.345-14.28-132.345zM370.931 280.895c-7.887 0-14.275 57.6-14.275 128.652s6.393 128.652 14.275 128.652c7.887 0 14.28-57.6 14.28-128.652s-6.397-128.652-14.28-128.652zM440.122 280.895c-7.887 0-14.28 64.909-14.28 144.975s6.393 144.975 14.28 144.975c7.887 0 14.28-64.909 14.28-144.975-0.004-80.070-6.397-144.975-14.28-144.975zM839.9 306.154c-30.754-16.474-66.993-19.77-66.993-19.77h-280.062v317.403c0 0 113.124 38.442 181.218-26.357s57.11-118.614 57.11-118.614c0 0 83.471 31.851 127.403-21.968 43.924-53.815 12.073-114.221-18.677-130.695z" />
<glyph unicode="&#xe95e;" glyph-name="speak" d="M554.667 576c0-94.257-76.41-170.667-170.667-170.667s-170.667 76.41-170.667 170.667c0 94.257 76.41 170.667 170.667 170.667s170.667-76.41 170.667-170.667zM384 320c-113.92 0-341.333-57.173-341.333-170.667v-42.667c0-23.467 19.2-42.667 42.667-42.667h597.333c23.467 0 42.667 19.2 42.667 42.667v42.667c0 113.493-227.413 170.667-341.333 170.667zM660.053 628.48c13.653-33.707 13.653-71.253 0-104.96-8.107-20.053-4.693-42.667 10.667-58.027l1.28-1.28c24.747-24.747 66.987-19.627 83.2 11.52 32.427 61.867 32.427 134.4-0.853 198.827-16.213 31.573-58.88 37.547-84.053 12.373l-0.427-0.427c-14.507-14.933-17.92-37.973-9.813-58.027zM818.347 836.693c-17.067-17.067-19.627-43.52-5.547-63.147 84.053-116.907 83.627-273.493-1.28-394.667-13.653-19.2-10.667-45.653 5.973-62.293l1.28-1.28c20.907-20.907 56.32-19.2 74.24 4.267 117.333 151.040 117.76 357.12 0 512.853-17.92 23.467-53.76 25.173-74.667 4.267z" />
<glyph unicode="&#xe95f;" glyph-name="spotify" d="M0 704v-512c0-141.385 114.615-256 256-256h512c141.385 0 256 114.615 256 256v512c0 141.385-114.615 256-256 256h-512c-141.385 0-256-114.615-256-256zM511.986 93.556c-195.753 0-354.448 158.695-354.448 354.448 0 195.78 158.695 354.439 354.448 354.439 195.744 0 354.475-158.659 354.475-354.439 0-195.753-158.731-354.448-354.475-354.448zM450.265 378.859c77.549 0 146.659-17.809 206.13-53.489 8.863-5.136 14.041-10.413 14.041-23.538 0-12.81-10.386-22.17-22.033-22.17-5.737 0-9.637 1.974-14.989 5.244-51.373 31.069-115.446 47.401-183.395 47.401-37.933 0-76.109-4.857-111.825-12.279-5.811-1.269-13.089-3.486-17.458-3.486-13.476 0-22.411 10.665-22.411 22.276 0 14.881 8.55 22.305 19.251 24.349 43.805 9.99 87.405 15.693 132.688 15.693zM445.372 494.559c92.792 0 182.558-23.124 253.108-65.345 11.818-6.792 16.188-15.414 16.188-28.017 0-15.342-12.214-27.727-27.628-27.727-7.701 0-12.52 3.099-17.764 6.162-57.679 34.202-137.59 56.93-225.066 56.93-44.896 0-83.639-6.295-115.698-14.809-6.927-1.935-10.8-3.981-17.241-3.981-15.232 0-27.691 12.423-27.691 27.799 0 15.063 7.323 25.44 22.033 29.592 39.859 10.944 80.54 19.395 139.759 19.395zM452.624 616.339c104.050 0 213.588-21.396 293.571-68.372 10.764-6.117 18.261-15.306 18.261-32.194-0.036-19.314-15.558-33.178-33.466-33.178-7.179 0-11.467 1.758-18.223 5.451-64.183 38.464-163.73 59.642-260.008 59.642-48.058 0-96.864-4.893-141.589-17.025-5.179-1.269-11.647-3.873-18.196-3.873-18.891 0-33.394 14.955-33.394 33.889 0 19.242 11.926 30.043 24.772 33.844 50.563 14.89 106.935 21.817 168.271 21.817z" />
<glyph unicode="&#xe960;" glyph-name="star-filled" d="M512 223.147l177.067-107.093c32.427-19.627 72.107 9.387 63.573 46.080l-46.933 201.387 156.587 135.68c28.587 24.747 13.227 71.68-24.32 74.667l-206.080 17.493-80.64 190.293c-14.507 34.56-64 34.56-78.507 0l-80.64-189.867-206.080-17.493c-37.547-2.987-52.907-49.92-24.32-74.667l156.587-135.68-46.933-201.387c-8.533-36.693 31.147-65.707 63.573-46.080l177.067 106.667z" />
<glyph unicode="&#xe961;" glyph-name="star-half" d="M838.4 574.293l-206.507 17.92-80.64 189.867c-14.507 34.56-64 34.56-78.507 0l-80.64-190.293-206.080-17.493c-37.547-2.987-52.907-49.92-24.32-74.667l156.587-135.68-46.933-201.387c-8.533-36.693 31.147-65.707 63.573-46.080l177.067 106.667 177.067-107.093c32.427-19.627 72.107 9.387 63.573 46.080l-46.933 201.813 156.587 135.68c28.587 24.747 13.653 71.68-23.893 74.667v0zM512 302.933v396.8l72.96-172.373 186.88-16.213-141.653-122.88 42.667-182.613-160.853 97.28z" />
<glyph unicode="&#xe962;" glyph-name="star" d="M838.4 574.293l-206.507 17.92-80.64 189.867c-14.507 34.56-64 34.56-78.507 0l-80.64-190.293-206.080-17.493c-37.547-2.987-52.907-49.92-24.32-74.667l156.587-135.68-46.933-201.387c-8.533-36.693 31.147-65.707 63.573-46.080l177.067 106.667 177.067-107.093c32.427-19.627 72.107 9.387 63.573 46.080l-46.933 201.813 156.587 135.68c28.587 24.747 13.653 71.68-23.893 74.667v0zM512 302.933l-160.427-96.853 42.667 182.613-141.653 122.88 186.88 16.213 72.533 171.947 72.96-172.373 186.88-16.213-141.653-122.88 42.667-182.613-160.853 97.28z" />
<glyph unicode="&#xe963;" glyph-name="store" d="M938.667 560.46h-204.373l-187.307 294.88c-17.067 26.481-54.187 26.481-70.827 0l-187.307-294.88h-203.52c-23.467 0-42.667-20.197-42.667-44.883 0-4.039 0.427-8.079 1.707-12.118l108.373-416.063c9.813-37.702 42.667-65.529 81.92-65.529h554.667c39.253 0 72.107 27.827 82.347 65.529l108.373 416.063 1.28 12.118c0 24.686-19.2 44.883-42.667 44.883zM511.573 749.416l119.893-188.956h-239.787l119.893 188.956zM512 201.398c-46.933 0-85.333 40.394-85.333 89.766s38.4 89.766 85.333 89.766c46.933 0 85.333-40.394 85.333-89.766s-38.4-89.766-85.333-89.766z" />
<glyph unicode="&#xe964;" glyph-name="text" d="M832 874.667h-640c-58.667 0-106.667-48-106.667-106.667v-640c0-58.667 48-106.667 106.667-106.667h640c58.667 0 106.667 48 106.667 106.667v640c0 58.667-48 106.667-106.667 106.667zM778.667 394.667h-533.333v106.667h533.333v-106.667zM565.333 181.333h-320v106.667h320v-106.667zM778.667 608h-533.333v106.667h533.333v-106.667z" />
<glyph unicode="&#xe965;" glyph-name="texto" d="M128 704c-23.467 0-42.667-19.2-42.667-42.667v-554.667c0-46.933 38.4-85.333 85.333-85.333h554.667c23.467 0 42.667 19.2 42.667 42.667s-19.2 42.667-42.667 42.667h-512c-23.467 0-42.667 19.2-42.667 42.667v512c0 23.467-19.2 42.667-42.667 42.667zM853.333 874.667h-512c-46.933 0-85.333-38.4-85.333-85.333v-512c0-46.933 38.4-85.333 85.333-85.333h512c46.933 0 85.333 38.4 85.333 85.333v512c0 46.933-38.4 85.333-85.333 85.333zM768 490.667h-341.333c-23.467 0-42.667 19.2-42.667 42.667s19.2 42.667 42.667 42.667h341.333c23.467 0 42.667-19.2 42.667-42.667s-19.2-42.667-42.667-42.667zM597.333 320h-170.667c-23.467 0-42.667 19.2-42.667 42.667s19.2 42.667 42.667 42.667h170.667c23.467 0 42.667-19.2 42.667-42.667s-19.2-42.667-42.667-42.667zM768 661.333h-341.333c-23.467 0-42.667 19.2-42.667 42.667s19.2 42.667 42.667 42.667h341.333c23.467 0 42.667-19.2 42.667-42.667s-19.2-42.667-42.667-42.667z" />
<glyph unicode="&#xe966;" glyph-name="toggle-off" d="M725.333 661.333h-426.667c-117.76 0-213.333-95.573-213.333-213.333s95.573-213.333 213.333-213.333h426.667c117.76 0 213.333 95.573 213.333 213.333s-95.573 213.333-213.333 213.333zM298.667 320c-70.827 0-128 57.173-128 128s57.173 128 128 128c70.827 0 128-57.173 128-128s-57.173-128-128-128z" />
<glyph unicode="&#xe967;" glyph-name="toggle-on" d="M725.333 661.333h-426.667c-117.76 0-213.333-95.573-213.333-213.333s95.573-213.333 213.333-213.333h426.667c117.76 0 213.333 95.573 213.333 213.333s-95.573 213.333-213.333 213.333zM725.333 320c-70.827 0-128 57.173-128 128s57.173 128 128 128c70.827 0 128-57.173 128-128s-57.173-128-128-128z" />
<glyph unicode="&#xe968;" glyph-name="video" d="M832 874.667c58.667 0 106.667-48 106.667-106.667v0-640c0-58.667-48-106.667-106.667-106.667v0h-640c-58.667 0-106.667 48-106.667 106.667v0 640c0 58.667 48 106.667 106.667 106.667v0zM386.51 688.523v-480l320 240-320 240z" />
<glyph unicode="&#xe969;" glyph-name="visibility-off" d="M512 685.415c117.76 0 213.333-93.878 213.333-209.55 0-21.374-4.267-41.91-10.24-61.189l130.56-128.244c59.307 51.549 106.24 116.091 135.68 189.852-73.813 183.566-256 313.906-469.333 313.906-54.187 0-106.24-8.382-155.307-23.889l92.587-90.945c20.053 5.867 40.96 10.058 62.72 10.058zM115.627 825.395c-16.64-16.345-16.64-42.748 0-59.093l84.053-82.563c-69.12-54.064-124.16-125.311-157.013-207.873 73.813-183.985 256-314.325 469.333-314.325 64.853 0 126.72 12.573 183.893 34.366l116.053-113.995c16.64-16.345 43.52-16.345 60.16 0s16.64 42.748 0 59.093l-695.893 684.39c-16.64 16.345-43.947 16.345-60.587 0zM512 266.316c-117.76 0-213.333 93.878-213.333 209.55 0 32.271 7.68 62.865 20.907 89.687l66.987-65.799c-1.28-7.544-2.56-15.507-2.56-23.889 0-69.571 57.173-125.73 128-125.73 8.533 0 16.213 1.257 24.32 2.934l66.987-65.799c-27.733-13.411-58.453-20.955-91.307-20.955zM638.72 489.696c-6.4 58.674-53.333 104.356-112.64 110.642l112.64-110.642z" />
<glyph unicode="&#xe96a;" glyph-name="visibility-on" d="M512 746.667c-213.333 0-395.52-132.693-469.333-320 73.813-187.307 256-320 469.333-320s395.52 132.693 469.333 320c-73.813 187.307-256 320-469.333 320zM512 213.333c-117.76 0-213.333 95.573-213.333 213.333s95.573 213.333 213.333 213.333c117.76 0 213.333-95.573 213.333-213.333s-95.573-213.333-213.333-213.333zM512 554.667c-70.827 0-128-57.173-128-128s57.173-128 128-128c70.827 0 128 57.173 128 128s-57.173 128-128 128z" />
<glyph unicode="&#xe96b;" glyph-name="visibility-off1" d="M512 682.667c117.76 0 213.333-95.573 213.333-213.333 0-21.76-4.267-42.667-10.24-62.293l130.56-130.56c59.307 52.48 106.24 118.187 135.68 193.28-73.813 186.88-256 319.573-469.333 319.573-54.187 0-106.24-8.533-155.307-24.32l92.587-92.587c20.053 5.973 40.96 10.24 62.72 10.24zM115.627 825.173c-16.64-16.64-16.64-43.52 0-60.16l84.053-84.053c-69.12-55.040-124.16-127.573-157.013-211.627 73.813-187.307 256-320 469.333-320 64.853 0 126.72 12.8 183.893 34.987l116.053-116.053c16.64-16.64 43.52-16.64 60.16 0s16.64 43.52 0 60.16l-695.893 696.747c-16.64 16.64-43.947 16.64-60.587 0zM512 256c-117.76 0-213.333 95.573-213.333 213.333 0 32.853 7.68 64 20.907 91.307l66.987-66.987c-1.28-7.68-2.56-15.787-2.56-24.32 0-70.827 57.173-128 128-128 8.533 0 16.213 1.28 24.32 2.987l66.987-66.987c-27.733-13.653-58.453-21.333-91.307-21.333zM638.72 483.413c-6.4 59.733-53.333 106.24-112.64 112.64l112.64-112.64z" />
<glyph unicode="&#xe96c;" glyph-name="visibility-on1" d="M512 789.333c-213.333 0-395.52-132.693-469.333-320 73.813-187.307 256-320 469.333-320s395.52 132.693 469.333 320c-73.813 187.307-256 320-469.333 320zM512 256c-117.76 0-213.333 95.573-213.333 213.333s95.573 213.333 213.333 213.333c117.76 0 213.333-95.573 213.333-213.333s-95.573-213.333-213.333-213.333zM512 597.333c-70.827 0-128-57.173-128-128s57.173-128 128-128c70.827 0 128 57.173 128 128s-57.173 128-128 128z" />
<glyph unicode="&#xe96d;" glyph-name="youtube" d="M767.187 960c141.41 0 256.813-115.403 256.813-256.813v0-510.375c0-141.41-115.403-256.813-256.813-256.813v0h-511.187c-140.597 0-256 115.403-256 256v0 511.187c0 141.41 115.403 256.813 256 256.813v0zM515.605 683.655h-7.212c-21.937-0.183-139.219-1.415-220.699-7.287-12.19-1.625-39.010-2.438-63.39-29.257-18.692-20.317-24.381-65.829-24.381-65.829s-4.876-54.451-4.876-108.089v0-50.387c0-53.638 4.876-108.089 4.876-108.089s4.876-45.511 24.381-65.829c24.381-26.819 56.889-26.006 70.705-28.444 47.897-4.562 196.786-6.99 215.799-7.284l5.61-0.003c21.93 0.183 139.141 1.415 219.887 7.287 12.19 1.625 39.010 1.625 63.39 28.444 18.692 20.317 24.381 65.829 24.381 65.829s4.876 54.451 4.876 108.089v0 50.387c0 53.638-4.876 108.089-4.876 108.089s-4.876 46.324-24.381 66.641c-24.381 26.006-52.013 26.819-64.203 28.444-80.746 5.872-197.957 7.104-219.887 7.287zM446.171 548.775l172.292-94.273-172.292-92.648v186.921z" />
</font>
</defs>
</svg>
